<?xml version="1.0" standalone="no"?>
<!DOCTYPE svg PUBLIC "-//W3C//DTD SVG 20010904//EN"
 "http://www.w3.org/TR/2001/REC-SVG-20010904/DTD/svg10.dtd">
<svg version="1.0" xmlns="http://www.w3.org/2000/svg"
 width="1080.000000pt" height="1080.000000pt" viewBox="0 0 1080.000000 1080.000000"
 preserveAspectRatio="xMidYMid meet">
<metadata>
Created by potrace 1.14, written by Peter Selinger 2001-2017
</metadata>
<g transform="translate(0.000000,1080.000000) scale(0.100000,-0.100000)"
fill="#000000" stroke="none">
<path d="M5900 5710 l0 -1390 55 3 c30 2 55 0 55 -5 0 -5 5 -6 12 -2 6 4 34 6
62 5 59 -2 50 -2 144 1 41 2 76 1 78 -1 8 -8 34 -10 34 -2 0 3 26 5 58 3 65
-3 55 -3 150 0 41 2 76 1 78 -1 8 -8 34 -10 34 -3 0 4 34 7 75 7 41 0 75 -4
75 -8 0 -5 5 -5 12 -1 6 4 34 6 62 5 28 -1 56 -2 61 -2 6 1 42 2 80 4 39 1 75
-1 82 -6 7 -5 18 -5 24 -1 17 10 159 11 159 1 0 -5 5 -5 12 -1 6 4 34 6 62 5
59 -2 50 -2 144 1 41 2 76 1 78 -1 8 -8 34 -10 34 -3 0 4 33 6 72 4 88 -3 72
-3 191 0 53 2 97 0 97 -4 0 -4 8 -4 17 -1 10 4 33 6 53 5 44 -3 36 -3 153 0
55 2 101 0 104 -5 2 -4 10 -4 16 0 6 4 27 6 47 5 44 -3 36 -3 153 0 53 2 97 0
97 -4 0 -4 8 -4 17 -1 10 4 33 6 53 5 42 -3 32 -3 150 0 53 1 101 -1 108 -6 7
-4 12 -3 12 1 0 10 41 10 57 0 6 -4 13 -1 15 6 2 6 4 633 4 1392 l-1 1380
-1567 3 -1568 2 0 -1390z"/>
<path d="M1895 6799 c-22 -4 -53 -9 -70 -12 -193 -35 -367 -126 -505 -266 -79
-80 -142 -151 -133 -151 2 0 -8 -17 -24 -37 -34 -44 -59 -84 -63 -98 -1 -5
-11 -22 -21 -36 -15 -22 -38 -69 -44 -89 0 -3 -11 -25 -24 -50 -13 -25 -23
-45 -22 -45 3 0 1 -5 -28 -90 -11 -33 -22 -71 -25 -85 -2 -14 -5 -25 -6 -25
-1 0 -3 -9 -5 -20 -19 -92 -22 -120 -18 -132 3 -7 1 -13 -4 -13 -15 0 -16
-199 -1 -218 10 -12 10 -14 1 -8 -15 9 -16 7 -4 -30 6 -16 12 -47 15 -69 5
-43 34 -135 61 -200 49 -114 197 -285 301 -347 51 -30 187 -95 219 -104 179
-52 196 -54 320 -56 113 -2 182 6 281 33 73 19 285 111 310 134 7 5 31 22 55
37 85 53 70 42 211 161 42 35 74 67 71 71 -4 3 -2 6 3 6 15 0 64 46 57 54 -3
3 -1 6 5 6 6 0 31 21 54 47 24 25 57 61 73 79 17 18 40 46 52 61 12 15 35 43
52 62 17 19 31 37 31 41 0 3 13 20 29 38 17 17 37 42 45 54 l15 22 23 -29 c13
-16 22 -31 20 -33 -2 -2 6 -12 17 -21 11 -10 18 -21 14 -25 -3 -3 2 -6 12 -6
10 0 15 -3 12 -6 -6 -6 6 -23 70 -104 77 -97 109 -136 115 -138 4 -2 8 -8 8
-12 0 -17 243 -254 302 -295 186 -129 338 -201 464 -221 22 -3 59 -10 84 -14
47 -9 267 -6 310 4 56 13 80 17 82 17 8 -3 152 50 204 75 70 34 180 107 211
141 12 13 25 23 28 23 4 -1 16 11 28 26 12 15 32 39 44 53 13 13 34 38 46 54
12 16 28 35 35 43 7 8 11 14 7 14 -3 0 6 11 20 25 14 14 25 32 25 39 0 7 9 22
20 34 11 12 21 25 22 29 1 12 22 57 28 63 6 5 71 148 75 165 1 6 5 18 8 28 9
23 18 51 18 54 0 2 6 20 14 42 7 22 11 42 8 45 -3 3 -1 11 5 19 6 7 13 31 16
52 2 22 5 40 6 40 12 0 18 310 6 365 -4 19 -9 44 -11 55 -9 45 -14 63 -38 130
-31 85 -50 125 -59 125 -5 0 -8 6 -8 13 -1 23 -100 137 -172 196 -74 61 -198
129 -284 157 -62 19 -190 50 -229 54 -56 7 -240 5 -280 -2 -124 -22 -269 -78
-370 -142 -30 -20 -60 -36 -66 -36 -6 0 -7 -4 -4 -10 3 -5 1 -10 -6 -10 -33 0
-252 -203 -383 -355 -38 -44 -73 -81 -78 -83 -4 -2 -8 -8 -8 -13 0 -5 -30 -47
-67 -93 -38 -46 -79 -99 -93 -117 -59 -78 -51 -75 -89 -32 -19 21 -33 39 -32
41 1 2 -9 17 -23 35 -14 18 -51 65 -82 105 -31 39 -61 72 -66 72 -4 0 -8 7 -8
15 0 18 -338 360 -347 352 -3 -4 -13 2 -22 12 -18 21 -147 111 -158 111 -5 0
-24 10 -43 22 -19 12 -37 22 -40 23 -3 0 -21 8 -40 18 -76 36 -190 71 -275 82
-72 10 -243 13 -290 4z m108 -344 c23 -3 60 -11 82 -17 22 -6 45 -12 50 -12
27 -3 173 -66 245 -107 54 -31 115 -72 118 -80 2 -5 8 -9 14 -9 5 0 15 -6 23
-12 7 -7 33 -29 57 -48 70 -57 278 -266 271 -273 -3 -4 -1 -7 4 -7 11 0 233
-272 233 -285 0 -4 7 -13 15 -19 14 -10 11 -17 -20 -50 -19 -21 -35 -41 -36
-45 0 -3 -27 -28 -59 -56 -32 -27 -59 -55 -59 -61 -1 -6 -12 -17 -26 -24 -13
-7 -22 -17 -19 -22 3 -4 0 -8 -6 -8 -6 0 -40 -25 -75 -55 -36 -30 -98 -76
-138 -103 -39 -26 -74 -49 -77 -52 -3 -3 -21 -13 -40 -24 -19 -10 -50 -27 -67
-37 -18 -10 -33 -17 -33 -14 0 2 -21 -5 -46 -16 -109 -49 -239 -74 -379 -73
-120 1 -207 15 -315 51 -195 65 -348 168 -462 313 -40 50 -104 160 -93 160 3
0 -1 7 -9 16 -9 8 -19 27 -22 42 -3 15 -8 34 -12 42 -3 8 -6 20 -7 25 0 6 -3
15 -6 20 -6 10 -19 78 -26 140 -9 83 0 286 15 309 3 6 7 18 9 26 4 29 33 90
42 90 6 0 12 9 16 19 3 11 20 29 38 40 18 11 28 21 23 21 -12 0 53 43 92 61
17 7 32 17 32 20 0 9 126 62 145 62 8 0 15 3 15 7 0 3 28 12 63 20 87 20 85
19 152 26 33 4 61 8 63 9 5 5 167 -3 215 -10z m2627 1 c19 -4 42 -10 50 -13 8
-3 24 -8 35 -10 64 -12 216 -81 291 -133 72 -50 154 -123 154 -137 0 -7 6 -13
13 -13 6 0 23 -17 37 -38 14 -20 28 -39 31 -42 16 -12 111 -216 111 -237 0 -4
4 -13 9 -19 5 -6 10 -27 11 -47 2 -20 6 -37 9 -37 3 0 7 -17 8 -37 1 -21 3
-44 3 -50 1 -7 4 -13 7 -13 9 0 5 -176 -4 -197 -4 -10 -9 -29 -10 -43 -1 -14
-8 -38 -14 -55 -7 -16 -13 -32 -13 -35 -2 -16 -22 -50 -30 -50 -4 0 -8 -7 -8
-16 0 -20 -106 -124 -126 -124 -8 0 -14 -4 -14 -10 0 -9 -128 -75 -160 -82 -8
-2 -17 -6 -20 -9 -3 -3 -36 -14 -75 -24 -119 -32 -138 -35 -270 -39 -133 -4
-226 6 -320 35 -81 26 -213 86 -268 123 -21 14 -42 26 -47 26 -4 0 -10 4 -12
8 -1 4 -32 30 -68 57 -75 57 -270 248 -270 265 0 6 -4 8 -10 5 -5 -3 -10 0
-10 9 0 8 -4 16 -8 18 -7 3 -112 130 -159 194 -12 16 -37 50 -57 77 -41 54
-43 66 -18 95 40 47 48 57 52 67 18 40 349 345 375 345 3 0 15 9 26 19 47 43
271 144 349 157 14 3 39 8 55 13 36 10 315 7 365 -3z"/>
<path d="M414 3860 l-112 -5 2 -300 1 -300 160 0 c147 1 164 3 205 24 77 40
115 84 147 171 26 69 15 195 -22 266 -37 71 -127 132 -210 140 -22 3 -44 6
-50 7 -5 1 -60 0 -121 -3z m216 -92 c97 -51 135 -167 99 -303 -25 -97 -102
-142 -245 -143 l-94 0 0 233 0 234 33 3 c54 5 180 -9 207 -24z"/>
<path d="M1933 3859 c-90 -17 -170 -86 -207 -179 -28 -69 -25 -193 6 -262 55
-120 170 -181 328 -172 54 3 176 48 172 64 0 3 3 22 7 43 6 23 5 37 -1 37 -5
0 -7 4 -4 8 6 10 8 61 4 112 l-3 35 -92 1 -93 1 0 -33 c0 -32 2 -34 38 -35 20
-1 45 -1 55 0 15 2 17 -7 17 -64 l0 -66 -37 -16 c-82 -35 -216 -10 -271 49
-60 66 -76 212 -31 297 55 105 195 144 310 86 28 -14 55 -25 61 -25 13 0 37
30 38 47 0 14 -57 50 -102 65 -43 13 -141 17 -195 7z"/>
<path d="M3223 3862 l-133 -3 0 -34 0 -35 100 0 100 0 0 -271 0 -270 42 3 42
3 1 265 0 265 98 3 98 3 -3 35 -3 36 -105 2 c-58 0 -165 0 -237 -2z"/>
<path d="M4077 3862 c-25 -2 -40 -9 -44 -20 -10 -29 -115 -295 -128 -327 -12
-26 -89 -218 -102 -252 -4 -9 6 -13 36 -13 46 0 49 3 89 100 l27 64 132 1 132
1 33 -80 33 -81 44 -3 c38 -3 43 -1 39 15 -15 51 -231 579 -241 588 -7 6 -29
9 -50 7z m113 -373 c0 -5 -20 -9 -45 -10 -163 -2 -160 -2 -157 17 3 22 18 62
42 119 10 22 26 66 36 98 l18 58 53 -136 c29 -75 53 -141 53 -146z"/>
<path d="M4739 3860 c-9 -6 -12 -82 -13 -309 l-1 -301 177 0 176 0 -2 37 -2
37 -130 0 -131 0 1 265 1 265 -32 7 c-17 3 -37 3 -44 -1z"/>
<path d="M7188 3862 l-37 -3 -91 -231 c-51 -126 -93 -236 -94 -244 -3 -20 -16
-30 -16 -12 0 8 -30 89 -66 179 -36 90 -72 182 -81 204 -42 108 -40 105 -88
105 -42 0 -58 -11 -35 -25 6 -3 10 -12 10 -19 0 -8 10 -35 22 -62 12 -27 23
-54 24 -60 1 -6 9 -27 17 -45 27 -61 65 -152 114 -276 l48 -123 40 0 40 0 44
108 c25 59 51 123 60 142 8 19 15 37 16 40 0 6 23 63 41 105 7 17 24 59 39 95
14 36 31 75 37 88 15 29 3 38 -44 34z"/>
<path d="M7640 3860 l-45 -5 0 -300 1 -300 190 -3 190 -2 -2 32 c-1 18 -2 35
-3 38 -1 5 -114 4 -136 0 -5 -1 -14 -1 -20 0 -5 1 -37 2 -70 3 l-60 2 -1 100
0 101 108 -1 c60 0 112 2 117 5 4 3 10 17 13 33 6 31 17 28 -137 31 l-100 1
-1 97 -1 97 146 3 146 3 2 33 1 32 -96 1 c-54 0 -119 1 -147 2 -27 1 -70 0
-95 -3z"/>
<path d="M8810 3860 l-25 -6 0 -222 c0 -122 -2 -222 -5 -222 -6 1 -297 379
-323 420 -15 24 -26 30 -55 30 l-37 0 0 -305 -1 -305 38 0 c29 0 38 4 39 18 0
9 1 112 1 229 l0 212 34 -42 c19 -23 38 -46 42 -52 94 -124 179 -233 188 -242
7 -7 22 -28 34 -48 12 -19 25 -35 30 -35 5 0 12 -9 15 -20 5 -15 15 -20 41
-20 20 0 34 5 35 13 1 17 1 537 0 568 -1 31 -15 38 -51 29z"/>
<path d="M10265 3860 l-70 -5 0 -300 0 -300 190 -3 191 -2 -1 29 c0 17 -3 33
-7 36 -3 4 -68 7 -145 8 l-138 2 0 100 0 99 110 2 c61 1 113 2 118 3 4 0 7 15
7 31 0 34 13 31 -156 32 l-81 1 -1 98 -2 99 145 0 c131 0 145 2 146 18 0 9 2
25 4 35 3 14 -4 17 -33 18 -21 0 -75 1 -122 2 -47 1 -116 0 -155 -3z"/>
<path d="M1225 3555 l0 -305 43 0 c33 0 42 4 43 18 0 9 1 145 1 302 l1 285
-44 3 -44 3 0 -306z"/>
<path d="M2640 3555 l0 -305 43 0 44 0 0 305 0 305 -44 0 -43 0 0 -305z"/>
<path d="M6080 3798 c-13 -35 -27 -67 -32 -72 -4 -6 -8 -16 -8 -23 0 -7 -9
-32 -19 -56 -11 -23 -41 -96 -66 -162 -26 -66 -53 -133 -60 -150 -39 -93 -39
-85 3 -85 20 0 42 4 48 8 5 4 24 41 40 82 l30 75 127 0 c70 0 132 -2 136 -5 5
-3 22 -39 38 -80 l28 -75 47 -3 47 -3 -95 238 c-53 131 -101 252 -109 268 -7
17 -19 47 -26 68 -13 36 -15 37 -60 37 l-47 0 -22 -62z m85 -70 c9 -30 64
-175 81 -213 7 -16 11 -31 10 -32 -4 -4 -207 -5 -211 -1 -6 5 98 268 106 268
4 0 11 -10 14 -22z"/>
<path d="M9285 3643 c2 -251 9 -278 81 -342 44 -38 80 -51 158 -56 106 -8 213
67 236 165 10 40 15 259 11 423 -1 25 -4 27 -43 27 l-43 0 1 -205 c1 -229 -6
-262 -65 -305 -61 -43 -172 -31 -210 22 -35 48 -39 83 -40 286 l-1 202 -44 0
-43 0 2 -217z"/>
</g>
</svg>
